<svg width="1319" height="901" viewBox="0 0 1319 901" fill="none" xmlns="http://www.w3.org/2000/svg">
<path d="M903.987 541.776C1092.94 678.337 1164.01 891.418 1144.18 1134.43L558.825 1677.16C458.055 1754.58 436.116 1723.1 354.332 1655.73L-261.42 991.607C-261.42 991.607 -196.039 247.525 108.916 475.578C413.87 703.631 715.032 405.216 903.987 541.776Z" fill="#A5A0A0" fill-opacity="0.2"/>
<path d="M903.987 541.776C1092.94 678.337 1164.01 891.418 1144.18 1134.43L558.825 1677.16C458.055 1754.58 436.116 1723.1 354.332 1655.73L-261.42 991.607C-261.42 991.607 -196.039 247.525 108.916 475.578C413.87 703.631 715.032 405.216 903.987 541.776Z" fill="url(#paint0_linear)"/>
<defs>
<linearGradient id="paint0_linear" x1="868.207" y1="486.181" x2="8.77363" y2="1283.02" gradientUnits="userSpaceOnUse">
<stop stop-color="#EE9621"/>
<stop offset="1" stop-color="#F15A5A"/>
</linearGradient>
</defs>
</svg>
