<svg width="34" height="35" viewBox="0 0 34 35" fill="none" xmlns="http://www.w3.org/2000/svg">
<path d="M16.6383 8.87826C11.928 8.87826 8.12869 12.7431 8.12869 17.5345C8.12869 22.326 11.928 26.1908 16.6383 26.1908C21.3486 26.1908 25.148 22.326 25.148 17.5345C25.148 12.7431 21.3486 8.87826 16.6383 8.87826ZM16.6383 23.1622C13.5944 23.1622 11.106 20.6384 11.106 17.5345C11.106 14.4306 13.587 11.9068 16.6383 11.9068C19.6897 11.9068 22.1707 14.4306 22.1707 17.5345C22.1707 20.6384 19.6822 23.1622 16.6383 23.1622ZM27.4809 8.52418C27.4809 9.6467 26.5922 10.5432 25.4961 10.5432C24.3925 10.5432 23.5112 9.63917 23.5112 8.52418C23.5112 7.40919 24.4 6.50514 25.4961 6.50514C26.5922 6.50514 27.4809 7.40919 27.4809 8.52418ZM33.117 10.5734C32.9911 7.86874 32.3838 5.47302 30.4359 3.49918C28.4955 1.52535 26.1404 0.907583 23.4816 0.771976C20.7413 0.613768 12.5279 0.613768 9.78766 0.771976C7.13627 0.90005 4.78112 1.51781 2.83331 3.49165C0.885498 5.46549 0.285601 7.86121 0.152291 10.5658C-0.00323763 13.3533 -0.00323763 21.7082 0.152291 24.4957C0.278195 27.2003 0.885498 29.596 2.83331 31.5698C4.78112 33.5437 7.12886 34.1614 9.78766 34.297C12.5279 34.4553 20.7413 34.4553 23.4816 34.297C26.1404 34.169 28.4955 33.5512 30.4359 31.5698C32.3764 29.596 32.9837 27.2003 33.117 24.4957C33.2725 21.7082 33.2725 13.3608 33.117 10.5734ZM29.5768 27.4866C28.9992 28.9632 27.8808 30.1008 26.4218 30.6959C24.237 31.5774 19.0527 31.374 16.6383 31.374C14.2239 31.374 9.03224 31.5698 6.85484 30.6959C5.40323 30.1083 4.28491 28.9707 3.69983 27.4866C2.83331 25.2641 3.03327 19.9905 3.03327 17.5345C3.03327 15.0785 2.84072 9.79738 3.69983 7.58246C4.2775 6.10585 5.39583 4.96826 6.85484 4.3731C9.03964 3.49165 14.2239 3.69506 16.6383 3.69506C19.0527 3.69506 24.2444 3.49918 26.4218 4.3731C27.8734 4.96073 28.9918 6.09832 29.5768 7.58246C30.4434 9.80491 30.2434 15.0785 30.2434 17.5345C30.2434 19.9905 30.4434 25.2716 29.5768 27.4866Z" fill="#FEE8D0"/>
</svg>
