<svg width="34" height="34" viewBox="0 0 34 34" fill="none" xmlns="http://www.w3.org/2000/svg">
<path d="M20.8892 12.9774V18.3357C20.8892 18.4713 20.7854 18.5768 20.652 18.5768H19.8073C19.7257 18.5768 19.6516 18.5316 19.6146 18.4789L17.1988 15.1629V18.3432C17.1988 18.4789 17.0951 18.5844 16.9617 18.5844H16.1169C15.9836 18.5844 15.8798 18.4789 15.8798 18.3432V12.985C15.8798 12.8493 15.9836 12.7438 16.1169 12.7438H16.9543C17.0284 12.7438 17.1099 12.7815 17.147 12.8493L19.5627 16.1652V12.985C19.5627 12.8493 19.6665 12.7438 19.7998 12.7438H20.6446C20.778 12.7363 20.8892 12.8493 20.8892 12.9774ZM14.8127 12.7363H13.968C13.8346 12.7363 13.7308 12.8418 13.7308 12.9774V18.3357C13.7308 18.4713 13.8346 18.5768 13.968 18.5768H14.8127C14.9461 18.5768 15.0499 18.4713 15.0499 18.3357V12.9774C15.0499 12.8493 14.9461 12.7363 14.8127 12.7363ZM12.7749 17.2279H10.4703V12.9774C10.4703 12.8418 10.3666 12.7363 10.2332 12.7363H9.38843C9.25505 12.7363 9.15131 12.8418 9.15131 12.9774V18.3357C9.15131 18.4035 9.17354 18.4563 9.218 18.5015C9.26246 18.5392 9.31433 18.5693 9.38102 18.5693H12.7675C12.9009 18.5693 13.0046 18.4638 13.0046 18.3281V17.469C13.0046 17.3409 12.9009 17.2279 12.7749 17.2279ZM25.3353 12.7363H21.9488C21.8228 12.7363 21.7117 12.8418 21.7117 12.9774V18.3357C21.7117 18.4638 21.8154 18.5768 21.9488 18.5768H25.3353C25.4687 18.5768 25.5724 18.4713 25.5724 18.3357V17.4766C25.5724 17.3409 25.4687 17.2354 25.3353 17.2354H23.0307V16.331H25.3353C25.4687 16.331 25.5724 16.2255 25.5724 16.0899V15.2232C25.5724 15.0876 25.4687 14.9821 25.3353 14.9821H23.0307V14.0777H25.3353C25.4687 14.0777 25.5724 13.9722 25.5724 13.8365V12.9774C25.565 12.8493 25.4613 12.7363 25.3353 12.7363ZM33.9238 6.15712V27.658C33.9164 31.0342 31.1968 33.7699 27.8696 33.7624H6.72815C3.40836 33.7548 0.718435 30.9815 0.725845 27.6053V6.10437C0.733256 2.72813 3.46023 -0.0075207 6.78002 1.55334e-05H27.9215C31.2413 0.00755177 33.9312 2.77335 33.9238 6.15712ZM29.3591 15.3965C29.3591 9.8951 23.9348 5.41857 17.2729 5.41857C10.6111 5.41857 5.18682 9.8951 5.18682 15.3965C5.18682 20.3252 9.48477 24.4551 15.2944 25.2389C16.7098 25.5479 16.5467 26.0754 16.2281 28.0122C16.1762 28.3212 15.9836 29.2255 17.2729 28.6754C18.5623 28.1253 24.2312 24.5079 26.7729 21.5386C28.5217 19.5792 29.3591 17.5971 29.3591 15.3965Z" fill="#FEE8D0"/>
</svg>
